<svg width="42" height="45" viewBox="0 0 42 45" fill="none" xmlns="http://www.w3.org/2000/svg">
<rect width="42" height="45" rx="4" fill="white"/>
<path d="M35.4751 19.0324C35.5546 18.8493 35.5977 18.652 35.6019 18.452C35.6062 18.2519 35.5714 18.053 35.4997 17.8666C35.428 17.6802 35.3207 17.5099 35.1839 17.3655C35.0472 17.2212 34.8837 17.1055 34.7028 17.0252L15.0205 8.24606C13.5227 7.57802 11.6786 8.32385 11.0388 9.83534L7.71203 17.6963C7.39905 18.4399 7.39002 19.2789 7.68691 20.0292C7.98381 20.7796 8.56238 21.3799 9.29565 21.6985L18.3849 25.6457L16.5183 30.3739H10.0107V25.7983H7V38H10.0107V33.4243H16.5183C17.7572 33.4243 18.8546 32.6709 19.3122 31.5056L21.1517 26.8476L28.9871 30.2488C29.352 30.4075 29.7639 30.4136 30.1333 30.266C30.5026 30.1183 30.7994 29.8287 30.9591 29.4603L31.4287 28.3774L33.9893 29.4146L37 21.7885L34.6878 20.8535L35.4751 19.0324ZM28.8004 26.8507L10.4819 18.8967L13.8057 11.0387L32.1137 19.2047L28.8004 26.8507Z" fill="black" fill-opacity="0.9"/>
</svg>
