<svg width="245" height="45" viewBox="0 0 245 45" fill="none" xmlns="http://www.w3.org/2000/svg">
<rect width="42" height="45" rx="4" fill="white"/>
<path d="M35.4751 19.0324C35.5546 18.8493 35.5977 18.652 35.6019 18.452C35.6062 18.2519 35.5714 18.053 35.4997 17.8666C35.428 17.6802 35.3207 17.5099 35.1839 17.3655C35.0472 17.2212 34.8837 17.1055 34.7028 17.0252L15.0205 8.24606C13.5227 7.57802 11.6786 8.32385 11.0388 9.83534L7.71203 17.6963C7.39905 18.4399 7.39002 19.2789 7.68691 20.0292C7.98381 20.7796 8.56238 21.3799 9.29565 21.6985L18.3849 25.6457L16.5183 30.3739H10.0107V25.7983H7V38H10.0107V33.4243H16.5183C17.7572 33.4243 18.8546 32.6709 19.3122 31.5056L21.1517 26.8476L28.9871 30.2488C29.352 30.4075 29.7639 30.4136 30.1333 30.266C30.5026 30.1183 30.7994 29.8287 30.9591 29.4603L31.4287 28.3774L33.9893 29.4146L37 21.7885L34.6878 20.8535L35.4751 19.0324ZM28.8004 26.8507L10.4819 18.8967L13.8057 11.0387L32.1137 19.2047L28.8004 26.8507Z" fill="black" fill-opacity="0.9"/>
<path d="M59.776 27.88C59.776 28.5307 59.608 29.1093 59.272 29.616C58.9413 30.1173 58.4613 30.5093 57.832 30.792C57.208 31.0747 56.4533 31.216 55.568 31.216C54.672 31.216 53.8853 31.0827 53.208 30.816C52.536 30.544 51.968 30.184 51.504 29.736L52.52 28.6C52.9147 28.9573 53.36 29.24 53.856 29.448C54.352 29.6507 54.92 29.752 55.56 29.752C55.976 29.752 56.3573 29.688 56.704 29.56C57.0507 29.4267 57.328 29.2293 57.536 28.968C57.744 28.7013 57.848 28.368 57.848 27.968C57.848 27.6427 57.7813 27.368 57.648 27.144C57.5147 26.92 57.2827 26.7173 56.952 26.536C56.6267 26.3547 56.1707 26.1787 55.584 26.008C54.8053 25.7733 54.152 25.512 53.624 25.224C53.096 24.936 52.696 24.592 52.424 24.192C52.1573 23.7867 52.024 23.296 52.024 22.72C52.024 22.1227 52.1867 21.6 52.512 21.152C52.8427 20.704 53.2933 20.3573 53.864 20.112C54.44 19.8613 55.0907 19.736 55.816 19.736C56.616 19.736 57.3147 19.8507 57.912 20.08C58.5093 20.3093 59.0427 20.6373 59.512 21.064L58.536 22.168C58.1467 21.8267 57.728 21.5787 57.28 21.424C56.8373 21.2693 56.3867 21.192 55.928 21.192C55.5547 21.192 55.216 21.2453 54.912 21.352C54.608 21.4587 54.368 21.616 54.192 21.824C54.016 22.032 53.928 22.296 53.928 22.616C53.928 22.8987 54.0053 23.1413 54.16 23.344C54.32 23.5467 54.5867 23.736 54.96 23.912C55.3387 24.0827 55.856 24.2667 56.512 24.464C57.1307 24.6453 57.6853 24.8693 58.176 25.136C58.672 25.4027 59.0613 25.752 59.344 26.184C59.632 26.616 59.776 27.1813 59.776 27.88ZM66.1378 22.328C66.8844 22.328 67.4818 22.512 67.9298 22.88C68.3778 23.2427 68.7031 23.7573 68.9058 24.424C69.1084 25.0853 69.2098 25.864 69.2098 26.76C69.2098 27.6187 69.0871 28.384 68.8418 29.056C68.5964 29.728 68.2311 30.256 67.7458 30.64C67.2658 31.024 66.6684 31.216 65.9538 31.216C65.0684 31.216 64.3538 30.904 63.8098 30.28V34.248L62.0178 34.448V22.552H63.5778L63.6898 23.64C64.0098 23.2027 64.3804 22.8747 64.8018 22.656C65.2284 22.4373 65.6738 22.328 66.1378 22.328ZM65.6418 23.712C65.2418 23.712 64.8898 23.832 64.5858 24.072C64.2818 24.312 64.0231 24.5947 63.8098 24.92V28.872C64.0124 29.176 64.2524 29.4107 64.5298 29.576C64.8124 29.736 65.1298 29.816 65.4818 29.816C66.0844 29.816 66.5431 29.5733 66.8578 29.088C67.1724 28.6027 67.3298 27.8293 67.3298 26.768C67.3298 26.048 67.2658 25.464 67.1378 25.016C67.0151 24.5627 66.8284 24.232 66.5778 24.024C66.3324 23.816 66.0204 23.712 65.6418 23.712ZM78.0675 28.928C78.0675 29.2587 78.1182 29.5013 78.2195 29.656C78.3208 29.8053 78.4835 29.9173 78.7075 29.992L78.3075 31.208C77.8915 31.16 77.5342 31.0453 77.2355 30.864C76.9368 30.6827 76.7102 30.408 76.5555 30.04C76.2462 30.4293 75.8542 30.7227 75.3795 30.92C74.9048 31.1173 74.3982 31.216 73.8595 31.216C73.0062 31.216 72.3288 30.976 71.8275 30.496C71.3315 30.0107 71.0835 29.376 71.0835 28.592C71.0835 27.7013 71.4302 27.016 72.1235 26.536C72.8168 26.056 73.8088 25.816 75.0995 25.816H76.3075V25.264C76.3075 24.72 76.1422 24.328 75.8115 24.088C75.4862 23.848 75.0248 23.728 74.4275 23.728C74.1502 23.728 73.8142 23.7653 73.4195 23.84C73.0248 23.9093 72.6115 24.0187 72.1795 24.168L71.7395 22.904C72.2675 22.7067 72.7848 22.5627 73.2915 22.472C73.7982 22.376 74.2675 22.328 74.6995 22.328C75.8302 22.328 76.6728 22.5787 77.2275 23.08C77.7875 23.5813 78.0675 24.2747 78.0675 25.16V28.928ZM74.4035 29.896C74.7662 29.896 75.1208 29.8 75.4675 29.608C75.8142 29.416 76.0942 29.1467 76.3075 28.8V26.936H75.3155C74.4728 26.936 73.8702 27.0773 73.5075 27.36C73.1448 27.6373 72.9635 28.0213 72.9635 28.512C72.9635 28.96 73.0835 29.304 73.3235 29.544C73.5688 29.7787 73.9288 29.896 74.4035 29.896ZM81.2053 31V22.552H82.7493L82.8853 23.648C83.2373 23.216 83.6533 22.888 84.1333 22.664C84.6133 22.44 85.1066 22.328 85.6133 22.328C86.4026 22.328 86.9919 22.5493 87.3813 22.992C87.7759 23.4293 87.9733 24.0453 87.9733 24.84V31H86.1813V25.728C86.1813 25.2373 86.1519 24.8427 86.0933 24.544C86.0346 24.2453 85.9173 24.0293 85.7413 23.896C85.5706 23.7627 85.3146 23.696 84.9733 23.696C84.7013 23.696 84.4426 23.7547 84.1973 23.872C83.9519 23.9893 83.7279 24.144 83.5253 24.336C83.3226 24.5227 83.1466 24.7227 82.9973 24.936V31H81.2053ZM95.415 22.552V29.688H97.711V31H91.095V29.688H93.623V23.864H91.175V22.552H95.415ZM94.167 18.416C94.519 18.416 94.8017 18.5227 95.015 18.736C95.2337 18.9493 95.343 19.216 95.343 19.536C95.343 19.856 95.2337 20.1253 95.015 20.344C94.8017 20.5627 94.519 20.672 94.167 20.672C93.8257 20.672 93.5457 20.5627 93.327 20.344C93.1083 20.1253 92.999 19.856 92.999 19.536C92.999 19.216 93.1083 18.9493 93.327 18.736C93.5457 18.5227 93.8257 18.416 94.167 18.416ZM103.465 29.84C104.025 29.84 104.47 29.7413 104.801 29.544C105.131 29.3413 105.297 29.064 105.297 28.712C105.297 28.4827 105.249 28.288 105.153 28.128C105.057 27.9627 104.865 27.8133 104.577 27.68C104.289 27.5413 103.851 27.3973 103.265 27.248C102.71 27.104 102.222 26.9333 101.801 26.736C101.385 26.5387 101.062 26.2827 100.833 25.968C100.603 25.6533 100.489 25.248 100.489 24.752C100.489 24.2667 100.625 23.8427 100.897 23.48C101.169 23.1173 101.558 22.8347 102.065 22.632C102.577 22.4293 103.177 22.328 103.865 22.328C104.574 22.328 105.193 22.4213 105.721 22.608C106.249 22.7947 106.699 23.0267 107.073 23.304L106.321 24.432C105.99 24.2133 105.627 24.0347 105.233 23.896C104.843 23.7573 104.403 23.688 103.913 23.688C103.342 23.688 102.931 23.7733 102.681 23.944C102.435 24.1147 102.313 24.3413 102.313 24.624C102.313 24.832 102.374 25.008 102.497 25.152C102.625 25.2907 102.843 25.4213 103.153 25.544C103.462 25.6613 103.899 25.8 104.465 25.96C105.014 26.1093 105.491 26.2853 105.897 26.488C106.307 26.6907 106.625 26.96 106.849 27.296C107.078 27.6267 107.193 28.0587 107.193 28.592C107.193 29.2 107.017 29.6987 106.665 30.088C106.318 30.472 105.859 30.7573 105.289 30.944C104.723 31.1253 104.115 31.216 103.465 31.216C102.681 31.216 102.003 31.104 101.433 30.88C100.862 30.6507 100.382 30.3653 99.9928 30.024L100.945 28.936C101.275 29.2027 101.654 29.4213 102.081 29.592C102.507 29.7573 102.969 29.84 103.465 29.84ZM111.779 18.984V23.584C112.12 23.168 112.52 22.856 112.979 22.648C113.437 22.4347 113.909 22.328 114.395 22.328C115.189 22.328 115.781 22.5493 116.171 22.992C116.56 23.4293 116.755 24.0453 116.755 24.84V31H114.963V25.12C114.963 24.6133 114.867 24.2507 114.675 24.032C114.483 23.808 114.173 23.696 113.747 23.696C113.48 23.696 113.224 23.7573 112.979 23.88C112.739 23.9973 112.515 24.152 112.307 24.344C112.104 24.536 111.928 24.7413 111.779 24.96V31H109.987V19.176L111.779 18.984ZM136.23 30.552C135.921 30.7493 135.55 30.9093 135.118 31.032C134.686 31.1547 134.235 31.216 133.766 31.216C132.785 31.216 132.038 30.9627 131.526 30.456C131.019 29.944 130.766 29.272 130.766 28.44V23.856H128.886V22.552H130.766V20.664L132.558 20.448V22.552H135.406L135.206 23.856H132.558V28.424C132.558 28.8773 132.67 29.216 132.894 29.44C133.123 29.6587 133.497 29.768 134.014 29.768C134.323 29.768 134.609 29.7307 134.87 29.656C135.131 29.5813 135.369 29.4853 135.582 29.368L136.23 30.552ZM138.848 31V29.72H140.088V23.824H138.848V22.552H141.456L141.784 24.512C142.098 23.8027 142.488 23.264 142.952 22.896C143.421 22.5227 144.024 22.336 144.76 22.336C145.01 22.336 145.234 22.3573 145.432 22.4C145.634 22.4373 145.834 22.488 146.032 22.552L145.496 24.088C145.325 24.04 145.165 24.0053 145.016 23.984C144.866 23.9573 144.701 23.944 144.52 23.944C143.906 23.944 143.376 24.1733 142.928 24.632C142.485 25.0907 142.136 25.7413 141.88 26.584V29.72H143.584V31H138.848ZM144.448 25.664V23.584L144.672 22.552H146.032L145.728 25.664H144.448ZM154.818 28.928C154.818 29.2587 154.868 29.5013 154.97 29.656C155.071 29.8053 155.234 29.9173 155.458 29.992L155.058 31.208C154.642 31.16 154.284 31.0453 153.986 30.864C153.687 30.6827 153.46 30.408 153.306 30.04C152.996 30.4293 152.604 30.7227 152.13 30.92C151.655 31.1173 151.148 31.216 150.61 31.216C149.756 31.216 149.079 30.976 148.578 30.496C148.082 30.0107 147.834 29.376 147.834 28.592C147.834 27.7013 148.18 27.016 148.874 26.536C149.567 26.056 150.559 25.816 151.85 25.816H153.058V25.264C153.058 24.72 152.892 24.328 152.562 24.088C152.236 23.848 151.775 23.728 151.178 23.728C150.9 23.728 150.564 23.7653 150.17 23.84C149.775 23.9093 149.362 24.0187 148.93 24.168L148.49 22.904C149.018 22.7067 149.535 22.5627 150.042 22.472C150.548 22.376 151.018 22.328 151.45 22.328C152.58 22.328 153.423 22.5787 153.978 23.08C154.538 23.5813 154.818 24.2747 154.818 25.16V28.928ZM151.154 29.896C151.516 29.896 151.871 29.8 152.218 29.608C152.564 29.416 152.844 29.1467 153.058 28.8V26.936H152.066C151.223 26.936 150.62 27.0773 150.258 27.36C149.895 27.6373 149.714 28.0213 149.714 28.512C149.714 28.96 149.834 29.304 150.074 29.544C150.319 29.7787 150.679 29.896 151.154 29.896ZM163.091 18.96C163.609 18.96 164.07 19.0053 164.475 19.096C164.886 19.1813 165.265 19.2987 165.611 19.448L165.083 20.688C164.801 20.5707 164.505 20.4853 164.195 20.432C163.891 20.3787 163.582 20.352 163.267 20.352C162.713 20.352 162.302 20.4587 162.035 20.672C161.769 20.88 161.635 21.2107 161.635 21.664V23.16H164.459L164.267 24.48H161.635V31H159.851V24.48H157.931V23.16H159.851V21.648C159.851 21.1147 159.985 20.648 160.251 20.248C160.523 19.8427 160.902 19.528 161.387 19.304C161.873 19.0747 162.441 18.96 163.091 18.96ZM172.685 18.96C173.202 18.96 173.664 19.0053 174.069 19.096C174.48 19.1813 174.858 19.2987 175.205 19.448L174.677 20.688C174.394 20.5707 174.098 20.4853 173.789 20.432C173.485 20.3787 173.176 20.352 172.861 20.352C172.306 20.352 171.896 20.4587 171.629 20.672C171.362 20.88 171.229 21.2107 171.229 21.664V23.16H174.053L173.861 24.48H171.229V31H169.445V24.48H167.525V23.16H169.445V21.648C169.445 21.1147 169.578 20.648 169.845 20.248C170.117 19.8427 170.496 19.528 170.981 19.304C171.466 19.0747 172.034 18.96 172.685 18.96ZM181.759 23.16V29.688H184.055V31H177.439V29.688H179.967V24.48H177.519V23.16H181.759ZM180.511 18.928C180.863 18.928 181.145 19.0373 181.359 19.256C181.577 19.4693 181.687 19.7333 181.687 20.048C181.687 20.3733 181.577 20.6453 181.359 20.864C181.145 21.0827 180.863 21.192 180.511 21.192C180.169 21.192 179.889 21.0827 179.671 20.864C179.452 20.6453 179.343 20.3733 179.343 20.048C179.343 19.7333 179.452 19.4693 179.671 19.256C179.889 19.0373 180.169 18.928 180.511 18.928ZM190.809 29.744C191.203 29.744 191.571 29.6773 191.913 29.544C192.254 29.4053 192.579 29.2267 192.889 29.008L193.72 30.16C193.353 30.4747 192.905 30.7307 192.377 30.928C191.854 31.12 191.313 31.216 190.753 31.216C189.889 31.216 189.15 31.0347 188.537 30.672C187.923 30.304 187.454 29.7893 187.129 29.128C186.803 28.4667 186.641 27.696 186.641 26.816C186.641 25.9573 186.803 25.192 187.129 24.52C187.459 23.8427 187.934 23.3093 188.553 22.92C189.171 22.5253 189.915 22.328 190.785 22.328C191.361 22.328 191.891 22.4133 192.377 22.584C192.862 22.7547 193.307 23.008 193.713 23.344L192.889 24.472C192.558 24.2427 192.219 24.0693 191.873 23.952C191.531 23.8293 191.179 23.768 190.817 23.768C190.15 23.768 189.603 24.0133 189.177 24.504C188.755 24.9947 188.545 25.7653 188.545 26.816C188.545 27.52 188.641 28.088 188.833 28.52C189.03 28.9467 189.299 29.2587 189.641 29.456C189.982 29.648 190.371 29.744 190.809 29.744ZM209.996 29.744C210.391 29.744 210.759 29.6773 211.1 29.544C211.441 29.4053 211.767 29.2267 212.076 29.008L212.908 30.16C212.54 30.4747 212.092 30.7307 211.564 30.928C211.041 31.12 210.5 31.216 209.94 31.216C209.076 31.216 208.337 31.0347 207.724 30.672C207.111 30.304 206.641 29.7893 206.316 29.128C205.991 28.4667 205.828 27.696 205.828 26.816C205.828 25.9573 205.991 25.192 206.316 24.52C206.647 23.8427 207.121 23.3093 207.74 22.92C208.359 22.5253 209.103 22.328 209.972 22.328C210.548 22.328 211.079 22.4133 211.564 22.584C212.049 22.7547 212.495 23.008 212.9 23.344L212.076 24.472C211.745 24.2427 211.407 24.0693 211.06 23.952C210.719 23.8293 210.367 23.768 210.004 23.768C209.337 23.768 208.791 24.0133 208.364 24.504C207.943 24.9947 207.732 25.7653 207.732 26.816C207.732 27.52 207.828 28.088 208.02 28.52C208.217 28.9467 208.487 29.2587 208.828 29.456C209.169 29.648 209.559 29.744 209.996 29.744ZM221.974 28.928C221.974 29.2587 222.024 29.5013 222.126 29.656C222.227 29.8053 222.39 29.9173 222.614 29.992L222.214 31.208C221.798 31.16 221.44 31.0453 221.142 30.864C220.843 30.6827 220.616 30.408 220.462 30.04C220.152 30.4293 219.76 30.7227 219.286 30.92C218.811 31.1173 218.304 31.216 217.766 31.216C216.912 31.216 216.235 30.976 215.734 30.496C215.238 30.0107 214.99 29.376 214.99 28.592C214.99 27.7013 215.336 27.016 216.03 26.536C216.723 26.056 217.715 25.816 219.006 25.816H220.214V25.264C220.214 24.72 220.048 24.328 219.718 24.088C219.392 23.848 218.931 23.728 218.334 23.728C218.056 23.728 217.72 23.7653 217.326 23.84C216.931 23.9093 216.518 24.0187 216.086 24.168L215.646 22.904C216.174 22.7067 216.691 22.5627 217.198 22.472C217.704 22.376 218.174 22.328 218.606 22.328C219.736 22.328 220.579 22.5787 221.134 23.08C221.694 23.5813 221.974 24.2747 221.974 25.16V28.928ZM218.31 29.896C218.672 29.896 219.027 29.8 219.374 29.608C219.72 29.416 220 29.1467 220.214 28.8V26.936H219.222C218.379 26.936 217.776 27.0773 217.414 27.36C217.051 27.6373 216.87 28.0213 216.87 28.512C216.87 28.96 216.99 29.304 217.23 29.544C217.475 29.7787 217.835 29.896 218.31 29.896ZM230.936 22.328C231.256 22.328 231.544 22.3973 231.8 22.536C232.056 22.6747 232.256 22.9173 232.4 23.264C232.549 23.6107 232.624 24.096 232.624 24.72V31H231.032V24.968C231.032 24.5253 231 24.208 230.936 24.016C230.877 23.824 230.72 23.728 230.464 23.728C230.261 23.728 230.056 23.792 229.848 23.92C229.64 24.0427 229.429 24.256 229.216 24.56V31H227.768V24.968C227.768 24.5253 227.736 24.208 227.672 24.016C227.613 23.824 227.456 23.728 227.2 23.728C226.992 23.728 226.784 23.792 226.576 23.92C226.373 24.0427 226.165 24.256 225.952 24.56V31H224.352V22.552H225.704L225.824 23.464C226.064 23.128 226.325 22.856 226.608 22.648C226.89 22.4347 227.232 22.328 227.632 22.328C227.952 22.328 228.242 22.408 228.504 22.568C228.765 22.728 228.957 23.008 229.08 23.408C229.314 23.088 229.581 22.8293 229.88 22.632C230.178 22.4293 230.53 22.328 230.936 22.328ZM237.777 29.84C238.337 29.84 238.783 29.7413 239.113 29.544C239.444 29.3413 239.609 29.064 239.609 28.712C239.609 28.4827 239.561 28.288 239.465 28.128C239.369 27.9627 239.177 27.8133 238.889 27.68C238.601 27.5413 238.164 27.3973 237.577 27.248C237.023 27.104 236.535 26.9333 236.113 26.736C235.697 26.5387 235.375 26.2827 235.145 25.968C234.916 25.6533 234.801 25.248 234.801 24.752C234.801 24.2667 234.937 23.8427 235.209 23.48C235.481 23.1173 235.871 22.8347 236.377 22.632C236.889 22.4293 237.489 22.328 238.177 22.328C238.887 22.328 239.505 22.4213 240.033 22.608C240.561 22.7947 241.012 23.0267 241.385 23.304L240.633 24.432C240.303 24.2133 239.94 24.0347 239.545 23.896C239.156 23.7573 238.716 23.688 238.225 23.688C237.655 23.688 237.244 23.7733 236.993 23.944C236.748 24.1147 236.625 24.3413 236.625 24.624C236.625 24.832 236.687 25.008 236.809 25.152C236.937 25.2907 237.156 25.4213 237.465 25.544C237.775 25.6613 238.212 25.8 238.777 25.96C239.327 26.1093 239.804 26.2853 240.209 26.488C240.62 26.6907 240.937 26.96 241.161 27.296C241.391 27.6267 241.505 28.0587 241.505 28.592C241.505 29.2 241.329 29.6987 240.977 30.088C240.631 30.472 240.172 30.7573 239.601 30.944C239.036 31.1253 238.428 31.216 237.777 31.216C236.993 31.216 236.316 31.104 235.745 30.88C235.175 30.6507 234.695 30.3653 234.305 30.024L235.257 28.936C235.588 29.2027 235.967 29.4213 236.393 29.592C236.82 29.7573 237.281 29.84 237.777 29.84Z" fill="white"/>
</svg>
