<svg width="207" height="45" viewBox="0 0 207 45" fill="none" xmlns="http://www.w3.org/2000/svg">
<rect width="42" height="45" rx="4" fill="white"/>
<path d="M35.4751 19.0324C35.5546 18.8493 35.5977 18.652 35.6019 18.452C35.6062 18.2519 35.5714 18.053 35.4997 17.8666C35.428 17.6802 35.3207 17.5099 35.1839 17.3655C35.0472 17.2212 34.8837 17.1055 34.7028 17.0252L15.0205 8.24606C13.5227 7.57802 11.6786 8.32385 11.0388 9.83534L7.71203 17.6963C7.39905 18.4399 7.39002 19.2789 7.68691 20.0292C7.98381 20.7796 8.56238 21.3799 9.29565 21.6985L18.3849 25.6457L16.5183 30.3739H10.0107V25.7983H7V38H10.0107V33.4243H16.5183C17.7572 33.4243 18.8546 32.6709 19.3122 31.5056L21.1517 26.8476L28.9871 30.2488C29.352 30.4075 29.7639 30.4136 30.1333 30.266C30.5026 30.1183 30.7994 29.8287 30.9591 29.4603L31.4287 28.3774L33.9893 29.4146L37 21.7885L34.6878 20.8535L35.4751 19.0324ZM28.8004 26.8507L10.4819 18.8967L13.8057 11.0387L32.1137 19.2047L28.8004 26.8507Z" fill="black" fill-opacity="0.9"/>
<path d="M56.3828 26.125C56.3828 25.8594 56.3411 25.625 56.2578 25.4219C56.1797 25.2135 56.0391 25.026 55.8359 24.8594C55.638 24.6927 55.362 24.5339 55.0078 24.3828C54.6589 24.2318 54.2161 24.0781 53.6797 23.9219C53.1172 23.7552 52.6094 23.5703 52.1562 23.3672C51.7031 23.1589 51.3151 22.9219 50.9922 22.6562C50.6693 22.3906 50.4219 22.0859 50.25 21.7422C50.0781 21.3984 49.9922 21.0052 49.9922 20.5625C49.9922 20.1198 50.0833 19.7109 50.2656 19.3359C50.4479 18.9609 50.7083 18.6354 51.0469 18.3594C51.3906 18.0781 51.7995 17.8594 52.2734 17.7031C52.7474 17.5469 53.276 17.4688 53.8594 17.4688C54.7135 17.4688 55.4375 17.6328 56.0312 17.9609C56.6302 18.2839 57.0859 18.7083 57.3984 19.2344C57.7109 19.7552 57.8672 20.3125 57.8672 20.9062H56.3672C56.3672 20.4792 56.276 20.1016 56.0938 19.7734C55.9115 19.4401 55.6354 19.1797 55.2656 18.9922C54.8958 18.7995 54.4271 18.7031 53.8594 18.7031C53.3229 18.7031 52.8802 18.7839 52.5312 18.9453C52.1823 19.1068 51.9219 19.3255 51.75 19.6016C51.5833 19.8776 51.5 20.1927 51.5 20.5469C51.5 20.7865 51.5495 21.0052 51.6484 21.2031C51.7526 21.3958 51.9115 21.5755 52.125 21.7422C52.3438 21.9089 52.6198 22.0625 52.9531 22.2031C53.2917 22.3438 53.6953 22.4792 54.1641 22.6094C54.8099 22.7917 55.3672 22.9948 55.8359 23.2188C56.3047 23.4427 56.6901 23.6953 56.9922 23.9766C57.2995 24.2526 57.526 24.5677 57.6719 24.9219C57.8229 25.2708 57.8984 25.6667 57.8984 26.1094C57.8984 26.5729 57.8047 26.9922 57.6172 27.3672C57.4297 27.7422 57.1615 28.0625 56.8125 28.3281C56.4635 28.5938 56.0443 28.7995 55.5547 28.9453C55.0703 29.0859 54.5286 29.1562 53.9297 29.1562C53.4036 29.1562 52.8854 29.0833 52.375 28.9375C51.8698 28.7917 51.4089 28.5729 50.9922 28.2812C50.5807 27.9896 50.25 27.6302 50 27.2031C49.7552 26.7708 49.6328 26.2708 49.6328 25.7031H51.1328C51.1328 26.0938 51.2083 26.4297 51.3594 26.7109C51.5104 26.987 51.7161 27.2161 51.9766 27.3984C52.2422 27.5807 52.5417 27.7161 52.875 27.8047C53.2135 27.888 53.5651 27.9297 53.9297 27.9297C54.4557 27.9297 54.901 27.8568 55.2656 27.7109C55.6302 27.5651 55.9062 27.3568 56.0938 27.0859C56.2865 26.8151 56.3828 26.4948 56.3828 26.125ZM61.5269 22.1719V32.25H60.0737V20.5469H61.4019L61.5269 22.1719ZM67.2222 24.7031V24.8672C67.2222 25.4818 67.1493 26.0521 67.0034 26.5781C66.8576 27.099 66.6441 27.5521 66.3628 27.9375C66.0868 28.3229 65.7456 28.6224 65.3394 28.8359C64.9331 29.0495 64.467 29.1562 63.9409 29.1562C63.4045 29.1562 62.9305 29.0677 62.5191 28.8906C62.1076 28.7135 61.7586 28.4557 61.4722 28.1172C61.1857 27.7786 60.9566 27.3724 60.7847 26.8984C60.618 26.4245 60.5034 25.8906 60.4409 25.2969V24.4219C60.5034 23.7969 60.6206 23.237 60.7925 22.7422C60.9644 22.2474 61.1909 21.8255 61.4722 21.4766C61.7586 21.1224 62.105 20.8542 62.5112 20.6719C62.9175 20.4844 63.3862 20.3906 63.9175 20.3906C64.4487 20.3906 64.9201 20.4948 65.3316 20.7031C65.743 20.9062 66.0894 21.1979 66.3706 21.5781C66.6519 21.9583 66.8628 22.4141 67.0034 22.9453C67.1493 23.4714 67.2222 24.0573 67.2222 24.7031ZM65.7691 24.8672V24.7031C65.7691 24.2812 65.7248 23.8854 65.6362 23.5156C65.5477 23.1406 65.4097 22.8125 65.2222 22.5312C65.0399 22.2448 64.8055 22.0208 64.5191 21.8594C64.2326 21.6927 63.8915 21.6094 63.4956 21.6094C63.131 21.6094 62.8133 21.6719 62.5425 21.7969C62.2769 21.9219 62.0503 22.0911 61.8628 22.3047C61.6753 22.513 61.5217 22.7526 61.4019 23.0234C61.2873 23.2891 61.2014 23.5651 61.1441 23.8516V25.875C61.2482 26.2396 61.3941 26.5833 61.5816 26.9062C61.7691 27.224 62.0191 27.4818 62.3316 27.6797C62.6441 27.8724 63.0373 27.9688 63.5112 27.9688C63.9019 27.9688 64.2378 27.888 64.5191 27.7266C64.8055 27.5599 65.0399 27.3333 65.2222 27.0469C65.4097 26.7604 65.5477 26.4323 65.6362 26.0625C65.7248 25.6875 65.7691 25.2891 65.7691 24.8672ZM74.5303 27.5547V23.2031C74.5303 22.8698 74.4626 22.5807 74.3272 22.3359C74.197 22.0859 73.9991 21.8932 73.7334 21.7578C73.4678 21.6224 73.1397 21.5547 72.7491 21.5547C72.3845 21.5547 72.0642 21.6172 71.7881 21.7422C71.5173 21.8672 71.3037 22.0312 71.1475 22.2344C70.9965 22.4375 70.9209 22.6562 70.9209 22.8906H69.4756C69.4756 22.5885 69.5537 22.2891 69.71 21.9922C69.8662 21.6953 70.0902 21.4271 70.3819 21.1875C70.6787 20.9427 71.0329 20.75 71.4444 20.6094C71.861 20.4635 72.3246 20.3906 72.835 20.3906C73.4496 20.3906 73.9912 20.4948 74.46 20.7031C74.934 20.9115 75.3037 21.2266 75.5694 21.6484C75.8402 22.0651 75.9756 22.5885 75.9756 23.2188V27.1562C75.9756 27.4375 75.9991 27.737 76.0459 28.0547C76.098 28.3724 76.1735 28.6458 76.2725 28.875V29H74.7647C74.6918 28.8333 74.6345 28.612 74.5928 28.3359C74.5511 28.0547 74.5303 27.7943 74.5303 27.5547ZM74.7803 23.875L74.7959 24.8906H73.335C72.9235 24.8906 72.5564 24.9245 72.2334 24.9922C71.9105 25.0547 71.6397 25.151 71.4209 25.2812C71.2022 25.4115 71.0355 25.5755 70.9209 25.7734C70.8064 25.9661 70.7491 26.1927 70.7491 26.4531C70.7491 26.7188 70.809 26.9609 70.9287 27.1797C71.0485 27.3984 71.2282 27.5729 71.4678 27.7031C71.7126 27.8281 72.0121 27.8906 72.3662 27.8906C72.809 27.8906 73.1996 27.7969 73.5381 27.6094C73.8767 27.4219 74.1449 27.1927 74.3428 26.9219C74.5459 26.651 74.6553 26.388 74.6709 26.1328L75.2881 26.8281C75.2517 27.0469 75.1527 27.2891 74.9912 27.5547C74.8298 27.8203 74.6136 28.0755 74.3428 28.3203C74.0772 28.5599 73.7595 28.7604 73.3897 28.9219C73.0251 29.0781 72.6136 29.1562 72.1553 29.1562C71.5824 29.1562 71.0798 29.0443 70.6475 28.8203C70.2204 28.5964 69.8871 28.2969 69.6475 27.9219C69.4131 27.5417 69.2959 27.1172 69.2959 26.6484C69.2959 26.1953 69.3845 25.7969 69.5616 25.4531C69.7386 25.1042 69.9939 24.8151 70.3272 24.5859C70.6605 24.3516 71.0616 24.1745 71.5303 24.0547C71.9991 23.9349 72.5225 23.875 73.1006 23.875H74.7803ZM80.1744 22.3516V29H78.7291V20.5469H80.0963L80.1744 22.3516ZM79.8306 24.4531L79.2291 24.4297C79.2343 23.8516 79.3202 23.3177 79.4869 22.8281C79.6535 22.3333 79.8879 21.9036 80.19 21.5391C80.4921 21.1745 80.8515 20.8932 81.2681 20.6953C81.69 20.4922 82.1561 20.3906 82.6666 20.3906C83.0832 20.3906 83.4582 20.4479 83.7916 20.5625C84.1249 20.6719 84.4088 20.849 84.6431 21.0938C84.8827 21.3385 85.065 21.6562 85.19 22.0469C85.315 22.4323 85.3775 22.9036 85.3775 23.4609V29H83.9244V23.4453C83.9244 23.0026 83.8593 22.6484 83.7291 22.3828C83.5989 22.112 83.4088 21.9167 83.1588 21.7969C82.9088 21.6719 82.6015 21.6094 82.2369 21.6094C81.8775 21.6094 81.5494 21.6849 81.2525 21.8359C80.9608 21.987 80.7082 22.1953 80.4947 22.4609C80.2864 22.7266 80.1223 23.0312 80.0025 23.375C79.8879 23.7135 79.8306 24.0729 79.8306 24.4531ZM89.6231 20.5469V29H88.17V20.5469H89.6231ZM88.0606 18.3047C88.0606 18.0703 88.1309 17.8724 88.2716 17.7109C88.4174 17.5495 88.6309 17.4688 88.9122 17.4688C89.1882 17.4688 89.3992 17.5495 89.545 17.7109C89.696 17.8724 89.7716 18.0703 89.7716 18.3047C89.7716 18.5286 89.696 18.7214 89.545 18.8828C89.3992 19.0391 89.1882 19.1172 88.9122 19.1172C88.6309 19.1172 88.4174 19.0391 88.2716 18.8828C88.1309 18.7214 88.0606 18.5286 88.0606 18.3047ZM97.3453 26.7578C97.3453 26.5495 97.2984 26.3568 97.2047 26.1797C97.1161 25.9974 96.9313 25.8333 96.65 25.6875C96.374 25.5365 95.9573 25.4062 95.4 25.2969C94.9313 25.1979 94.5068 25.0807 94.1266 24.9453C93.7516 24.8099 93.4313 24.6458 93.1656 24.4531C92.9052 24.2604 92.7047 24.0339 92.5641 23.7734C92.4234 23.513 92.3531 23.2083 92.3531 22.8594C92.3531 22.526 92.426 22.2109 92.5719 21.9141C92.7229 21.6172 92.9339 21.3542 93.2047 21.125C93.4807 20.8958 93.8115 20.7161 94.1969 20.5859C94.5823 20.4557 95.012 20.3906 95.4859 20.3906C96.163 20.3906 96.7411 20.5104 97.2203 20.75C97.6995 20.9896 98.0667 21.3099 98.3219 21.7109C98.5771 22.1068 98.7047 22.5469 98.7047 23.0312H97.2594C97.2594 22.7969 97.1891 22.5703 97.0484 22.3516C96.913 22.1276 96.7125 21.9427 96.4469 21.7969C96.1865 21.651 95.8661 21.5781 95.4859 21.5781C95.0849 21.5781 94.7594 21.6406 94.5094 21.7656C94.2646 21.8854 94.0849 22.0391 93.9703 22.2266C93.8609 22.4141 93.8063 22.612 93.8063 22.8203C93.8063 22.9766 93.8323 23.1172 93.8844 23.2422C93.9417 23.362 94.0406 23.474 94.1813 23.5781C94.3219 23.6771 94.5198 23.7708 94.775 23.8594C95.0302 23.9479 95.3557 24.0365 95.7516 24.125C96.4443 24.2812 97.0146 24.4688 97.4625 24.6875C97.9104 24.9062 98.2438 25.1745 98.4625 25.4922C98.6813 25.8099 98.7906 26.1953 98.7906 26.6484C98.7906 27.0182 98.7125 27.3568 98.5563 27.6641C98.4052 27.9714 98.1839 28.237 97.8922 28.4609C97.6057 28.6797 97.262 28.8516 96.8609 28.9766C96.4651 29.0964 96.0198 29.1562 95.525 29.1562C94.7802 29.1562 94.15 29.0234 93.6344 28.7578C93.1188 28.4922 92.7281 28.1484 92.4625 27.7266C92.1969 27.3047 92.0641 26.8594 92.0641 26.3906H93.5172C93.538 26.7865 93.6526 27.1016 93.8609 27.3359C94.0693 27.5651 94.3245 27.7292 94.6266 27.8281C94.9286 27.9219 95.2281 27.9688 95.525 27.9688C95.9208 27.9688 96.2516 27.9167 96.5172 27.8125C96.788 27.7083 96.9938 27.5651 97.1344 27.3828C97.275 27.2005 97.3453 26.9922 97.3453 26.7578ZM102.614 17V29H101.169V17H102.614ZM102.271 24.4531L101.669 24.4297C101.674 23.8516 101.76 23.3177 101.927 22.8281C102.094 22.3333 102.328 21.9036 102.63 21.5391C102.932 21.1745 103.291 20.8932 103.708 20.6953C104.13 20.4922 104.596 20.3906 105.107 20.3906C105.523 20.3906 105.898 20.4479 106.232 20.5625C106.565 20.6719 106.849 20.849 107.083 21.0938C107.323 21.3385 107.505 21.6562 107.63 22.0469C107.755 22.4323 107.818 22.9036 107.818 23.4609V29H106.364V23.4453C106.364 23.0026 106.299 22.6484 106.169 22.3828C106.039 22.112 105.849 21.9167 105.599 21.7969C105.349 21.6719 105.041 21.6094 104.677 21.6094C104.318 21.6094 103.989 21.6849 103.693 21.8359C103.401 21.987 103.148 22.1953 102.935 22.4609C102.726 22.7266 102.562 23.0312 102.443 23.375C102.328 23.7135 102.271 24.0729 102.271 24.4531ZM118.449 20.5469V21.6562H113.879V20.5469H118.449ZM115.426 18.4922H116.871V26.9062C116.871 27.1927 116.916 27.4089 117.004 27.5547C117.093 27.7005 117.207 27.7969 117.348 27.8438C117.488 27.8906 117.639 27.9141 117.801 27.9141C117.921 27.9141 118.046 27.9036 118.176 27.8828C118.311 27.8568 118.413 27.8359 118.481 27.8203L118.488 29C118.374 29.0365 118.223 29.0703 118.035 29.1016C117.853 29.138 117.632 29.1562 117.371 29.1562C117.017 29.1562 116.692 29.0859 116.395 28.9453C116.098 28.8047 115.861 28.5703 115.684 28.2422C115.512 27.9089 115.426 27.4609 115.426 26.8984V18.4922ZM122.07 21.875V29H120.625V20.5469H122.031L122.07 21.875ZM124.711 20.5L124.703 21.8438C124.583 21.8177 124.468 21.8021 124.359 21.7969C124.255 21.7865 124.135 21.7812 124 21.7812C123.666 21.7812 123.372 21.8333 123.117 21.9375C122.862 22.0417 122.646 22.1875 122.468 22.375C122.291 22.5625 122.151 22.7865 122.047 23.0469C121.948 23.3021 121.882 23.5833 121.851 23.8906L121.445 24.125C121.445 23.6146 121.494 23.1354 121.593 22.6875C121.698 22.2396 121.856 21.8438 122.07 21.5C122.284 21.151 122.554 20.8802 122.882 20.6875C123.216 20.4896 123.612 20.3906 124.07 20.3906C124.174 20.3906 124.294 20.4036 124.429 20.4297C124.565 20.4505 124.659 20.474 124.711 20.5ZM131.198 27.5547V23.2031C131.198 22.8698 131.131 22.5807 130.995 22.3359C130.865 22.0859 130.667 21.8932 130.402 21.7578C130.136 21.6224 129.808 21.5547 129.417 21.5547C129.053 21.5547 128.732 21.6172 128.456 21.7422C128.185 21.8672 127.972 22.0312 127.816 22.2344C127.665 22.4375 127.589 22.6562 127.589 22.8906H126.144C126.144 22.5885 126.222 22.2891 126.378 21.9922C126.534 21.6953 126.758 21.4271 127.05 21.1875C127.347 20.9427 127.701 20.75 128.113 20.6094C128.529 20.4635 128.993 20.3906 129.503 20.3906C130.118 20.3906 130.659 20.4948 131.128 20.7031C131.602 20.9115 131.972 21.2266 132.238 21.6484C132.508 22.0651 132.644 22.5885 132.644 23.2188V27.1562C132.644 27.4375 132.667 27.737 132.714 28.0547C132.766 28.3724 132.842 28.6458 132.941 28.875V29H131.433C131.36 28.8333 131.303 28.612 131.261 28.3359C131.219 28.0547 131.198 27.7943 131.198 27.5547ZM131.448 23.875L131.464 24.8906H130.003C129.592 24.8906 129.224 24.9245 128.902 24.9922C128.579 25.0547 128.308 25.151 128.089 25.2812C127.87 25.4115 127.704 25.5755 127.589 25.7734C127.474 25.9661 127.417 26.1927 127.417 26.4531C127.417 26.7188 127.477 26.9609 127.597 27.1797C127.717 27.3984 127.896 27.5729 128.136 27.7031C128.381 27.8281 128.68 27.8906 129.034 27.8906C129.477 27.8906 129.868 27.7969 130.206 27.6094C130.545 27.4219 130.813 27.1927 131.011 26.9219C131.214 26.651 131.323 26.388 131.339 26.1328L131.956 26.8281C131.92 27.0469 131.821 27.2891 131.659 27.5547C131.498 27.8203 131.282 28.0755 131.011 28.3203C130.745 28.5599 130.428 28.7604 130.058 28.9219C129.693 29.0781 129.282 29.1562 128.823 29.1562C128.251 29.1562 127.748 29.0443 127.316 28.8203C126.889 28.5964 126.555 28.2969 126.316 27.9219C126.081 27.5417 125.964 27.1172 125.964 26.6484C125.964 26.1953 126.053 25.7969 126.23 25.4531C126.407 25.1042 126.662 24.8151 126.995 24.5859C127.329 24.3516 127.73 24.1745 128.198 24.0547C128.667 23.9349 129.191 23.875 129.769 23.875H131.448ZM137.553 29H136.108V19.6562C136.108 19.0469 136.217 18.5339 136.436 18.1172C136.66 17.6953 136.981 17.3776 137.397 17.1641C137.814 16.9453 138.309 16.8359 138.882 16.8359C139.048 16.8359 139.215 16.8464 139.382 16.8672C139.553 16.888 139.72 16.9193 139.882 16.9609L139.803 18.1406C139.694 18.1146 139.569 18.0964 139.428 18.0859C139.293 18.0755 139.158 18.0703 139.022 18.0703C138.715 18.0703 138.449 18.1328 138.225 18.2578C138.007 18.3776 137.84 18.5547 137.725 18.7891C137.611 19.0234 137.553 19.3125 137.553 19.6562V29ZM139.428 20.5469V21.6562H134.772V20.5469H139.428ZM142.124 29H140.678V19.8125C140.678 19.1719 140.801 18.6302 141.046 18.1875C141.296 17.7448 141.652 17.4089 142.116 17.1797C142.579 16.9505 143.129 16.8359 143.764 16.8359C144.145 16.8359 144.514 16.8828 144.874 16.9766C145.233 17.0651 145.603 17.1771 145.983 17.3125L145.733 18.5312C145.499 18.4375 145.223 18.349 144.905 18.2656C144.587 18.1771 144.244 18.1328 143.874 18.1328C143.254 18.1328 142.806 18.2734 142.53 18.5547C142.259 18.8307 142.124 19.25 142.124 19.8125V29ZM143.85 20.5469V21.6562H139.342V20.5469H143.85ZM146.694 20.5469V29H145.249V20.5469H146.694ZM152.916 27.9688C153.26 27.9688 153.578 27.8984 153.869 27.7578C154.161 27.6172 154.401 27.4245 154.588 27.1797C154.776 26.9297 154.882 26.6458 154.908 26.3281H156.283C156.257 26.8281 156.088 27.2943 155.776 27.7266C155.468 28.1536 155.065 28.5 154.565 28.7656C154.065 29.026 153.515 29.1562 152.916 29.1562C152.281 29.1562 151.726 29.0443 151.252 28.8203C150.783 28.5964 150.393 28.2891 150.08 27.8984C149.773 27.5078 149.541 27.0599 149.385 26.5547C149.234 26.0443 149.158 25.5052 149.158 24.9375V24.6094C149.158 24.0417 149.234 23.5052 149.385 23C149.541 22.4896 149.773 22.0391 150.08 21.6484C150.393 21.2578 150.783 20.9505 151.252 20.7266C151.726 20.5026 152.281 20.3906 152.916 20.3906C153.578 20.3906 154.156 20.526 154.651 20.7969C155.145 21.0625 155.533 21.4271 155.815 21.8906C156.101 22.349 156.257 22.8698 156.283 23.4531H154.908C154.882 23.1042 154.783 22.7891 154.612 22.5078C154.445 22.2266 154.216 22.0026 153.924 21.8359C153.638 21.6641 153.302 21.5781 152.916 21.5781C152.474 21.5781 152.101 21.6667 151.799 21.8438C151.502 22.0156 151.265 22.25 151.088 22.5469C150.916 22.8385 150.791 23.1641 150.713 23.5234C150.64 23.8776 150.604 24.2396 150.604 24.6094V24.9375C150.604 25.3073 150.64 25.6719 150.713 26.0312C150.786 26.3906 150.908 26.7161 151.08 27.0078C151.257 27.2995 151.494 27.5339 151.791 27.7109C152.093 27.8828 152.468 27.9688 152.916 27.9688ZM166.22 27.9688C166.564 27.9688 166.881 27.8984 167.173 27.7578C167.465 27.6172 167.704 27.4245 167.892 27.1797C168.079 26.9297 168.186 26.6458 168.212 26.3281H169.587C169.561 26.8281 169.392 27.2943 169.079 27.7266C168.772 28.1536 168.368 28.5 167.868 28.7656C167.368 29.026 166.819 29.1562 166.22 29.1562C165.585 29.1562 165.03 29.0443 164.556 28.8203C164.087 28.5964 163.697 28.2891 163.384 27.8984C163.077 27.5078 162.845 27.0599 162.689 26.5547C162.538 26.0443 162.462 25.5052 162.462 24.9375V24.6094C162.462 24.0417 162.538 23.5052 162.689 23C162.845 22.4896 163.077 22.0391 163.384 21.6484C163.697 21.2578 164.087 20.9505 164.556 20.7266C165.03 20.5026 165.585 20.3906 166.22 20.3906C166.881 20.3906 167.46 20.526 167.954 20.7969C168.449 21.0625 168.837 21.4271 169.118 21.8906C169.405 22.349 169.561 22.8698 169.587 23.4531H168.212C168.186 23.1042 168.087 22.7891 167.915 22.5078C167.749 22.2266 167.519 22.0026 167.228 21.8359C166.941 21.6641 166.605 21.5781 166.22 21.5781C165.777 21.5781 165.405 21.6667 165.103 21.8438C164.806 22.0156 164.569 22.25 164.392 22.5469C164.22 22.8385 164.095 23.1641 164.017 23.5234C163.944 23.8776 163.908 24.2396 163.908 24.6094V24.9375C163.908 25.3073 163.944 25.6719 164.017 26.0312C164.09 26.3906 164.212 26.7161 164.384 27.0078C164.561 27.2995 164.798 27.5339 165.095 27.7109C165.397 27.8828 165.772 27.9688 166.22 27.9688ZM176.677 27.5547V23.2031C176.677 22.8698 176.609 22.5807 176.473 22.3359C176.343 22.0859 176.145 21.8932 175.88 21.7578C175.614 21.6224 175.286 21.5547 174.895 21.5547C174.531 21.5547 174.21 21.6172 173.934 21.7422C173.664 21.8672 173.45 22.0312 173.294 22.2344C173.143 22.4375 173.067 22.6562 173.067 22.8906H171.622C171.622 22.5885 171.7 22.2891 171.856 21.9922C172.012 21.6953 172.236 21.4271 172.528 21.1875C172.825 20.9427 173.179 20.75 173.591 20.6094C174.007 20.4635 174.471 20.3906 174.981 20.3906C175.596 20.3906 176.137 20.4948 176.606 20.7031C177.08 20.9115 177.45 21.2266 177.716 21.6484C177.986 22.0651 178.122 22.5885 178.122 23.2188V27.1562C178.122 27.4375 178.145 27.737 178.192 28.0547C178.244 28.3724 178.32 28.6458 178.419 28.875V29H176.911C176.838 28.8333 176.781 28.612 176.739 28.3359C176.697 28.0547 176.677 27.7943 176.677 27.5547ZM176.927 23.875L176.942 24.8906H175.481C175.07 24.8906 174.703 24.9245 174.38 24.9922C174.057 25.0547 173.786 25.151 173.567 25.2812C173.348 25.4115 173.182 25.5755 173.067 25.7734C172.953 25.9661 172.895 26.1927 172.895 26.4531C172.895 26.7188 172.955 26.9609 173.075 27.1797C173.195 27.3984 173.374 27.5729 173.614 27.7031C173.859 27.8281 174.158 27.8906 174.512 27.8906C174.955 27.8906 175.346 27.7969 175.684 27.6094C176.023 27.4219 176.291 27.1927 176.489 26.9219C176.692 26.651 176.802 26.388 176.817 26.1328L177.434 26.8281C177.398 27.0469 177.299 27.2891 177.137 27.5547C176.976 27.8203 176.76 28.0755 176.489 28.3203C176.223 28.5599 175.906 28.7604 175.536 28.9219C175.171 29.0781 174.76 29.1562 174.302 29.1562C173.729 29.1562 173.226 29.0443 172.794 28.8203C172.367 28.5964 172.033 28.2969 171.794 27.9219C171.559 27.5417 171.442 27.1172 171.442 26.6484C171.442 26.1953 171.531 25.7969 171.708 25.4531C171.885 25.1042 172.14 24.8151 172.473 24.5859C172.807 24.3516 173.208 24.1745 173.677 24.0547C174.145 23.9349 174.669 23.875 175.247 23.875H176.927ZM182.313 22.2266V29H180.86V20.5469H182.235L182.313 22.2266ZM182.016 24.4531L181.344 24.4297C181.349 23.8516 181.425 23.3177 181.571 22.8281C181.716 22.3333 181.933 21.9036 182.219 21.5391C182.506 21.1745 182.862 20.8932 183.289 20.6953C183.716 20.4922 184.211 20.3906 184.774 20.3906C185.17 20.3906 185.534 20.4479 185.867 20.5625C186.201 20.6719 186.49 20.8464 186.735 21.0859C186.979 21.3255 187.17 21.6328 187.305 22.0078C187.44 22.3828 187.508 22.8359 187.508 23.3672V29H186.063V23.4375C186.063 22.9948 185.987 22.6406 185.836 22.375C185.69 22.1094 185.482 21.9167 185.211 21.7969C184.94 21.6719 184.623 21.6094 184.258 21.6094C183.831 21.6094 183.474 21.6849 183.188 21.8359C182.901 21.987 182.672 22.1953 182.5 22.4609C182.328 22.7266 182.203 23.0312 182.125 23.375C182.052 23.7135 182.016 24.0729 182.016 24.4531ZM187.492 23.6562L186.524 23.9531C186.529 23.4896 186.604 23.0443 186.75 22.6172C186.901 22.1901 187.117 21.8099 187.399 21.4766C187.685 21.1432 188.037 20.8802 188.453 20.6875C188.87 20.4896 189.347 20.3906 189.883 20.3906C190.336 20.3906 190.737 20.4505 191.086 20.5703C191.44 20.6901 191.737 20.875 191.977 21.125C192.222 21.3698 192.407 21.6849 192.532 22.0703C192.657 22.4557 192.719 22.9141 192.719 23.4453V29H191.266V23.4297C191.266 22.9557 191.19 22.5885 191.039 22.3281C190.894 22.0625 190.685 21.8776 190.414 21.7734C190.149 21.6641 189.831 21.6094 189.461 21.6094C189.144 21.6094 188.862 21.6641 188.617 21.7734C188.373 21.8828 188.167 22.0339 188 22.2266C187.834 22.4141 187.706 22.6302 187.617 22.875C187.534 23.1198 187.492 23.3802 187.492 23.6562ZM200.308 26.7578C200.308 26.5495 200.262 26.3568 200.168 26.1797C200.079 25.9974 199.894 25.8333 199.613 25.6875C199.337 25.5365 198.92 25.4062 198.363 25.2969C197.894 25.1979 197.47 25.0807 197.09 24.9453C196.715 24.8099 196.394 24.6458 196.129 24.4531C195.868 24.2604 195.668 24.0339 195.527 23.7734C195.387 23.513 195.316 23.2083 195.316 22.8594C195.316 22.526 195.389 22.2109 195.535 21.9141C195.686 21.6172 195.897 21.3542 196.168 21.125C196.444 20.8958 196.775 20.7161 197.16 20.5859C197.545 20.4557 197.975 20.3906 198.449 20.3906C199.126 20.3906 199.704 20.5104 200.183 20.75C200.663 20.9896 201.03 21.3099 201.285 21.7109C201.54 22.1068 201.668 22.5469 201.668 23.0312H200.223C200.223 22.7969 200.152 22.5703 200.012 22.3516C199.876 22.1276 199.676 21.9427 199.41 21.7969C199.15 21.651 198.829 21.5781 198.449 21.5781C198.048 21.5781 197.723 21.6406 197.473 21.7656C197.228 21.8854 197.048 22.0391 196.933 22.2266C196.824 22.4141 196.769 22.612 196.769 22.8203C196.769 22.9766 196.795 23.1172 196.848 23.2422C196.905 23.362 197.004 23.474 197.144 23.5781C197.285 23.6771 197.483 23.7708 197.738 23.8594C197.993 23.9479 198.319 24.0365 198.715 24.125C199.407 24.2812 199.978 24.4688 200.426 24.6875C200.874 24.9062 201.207 25.1745 201.426 25.4922C201.644 25.8099 201.754 26.1953 201.754 26.6484C201.754 27.0182 201.676 27.3568 201.519 27.6641C201.368 27.9714 201.147 28.237 200.855 28.4609C200.569 28.6797 200.225 28.8516 199.824 28.9766C199.428 29.0964 198.983 29.1562 198.488 29.1562C197.743 29.1562 197.113 29.0234 196.598 28.7578C196.082 28.4922 195.691 28.1484 195.426 27.7266C195.16 27.3047 195.027 26.8594 195.027 26.3906H196.48C196.501 26.7865 196.616 27.1016 196.824 27.3359C197.032 27.5651 197.288 27.7292 197.59 27.8281C197.892 27.9219 198.191 27.9688 198.488 27.9688C198.884 27.9688 199.215 27.9167 199.48 27.8125C199.751 27.7083 199.957 27.5651 200.098 27.3828C200.238 27.2005 200.308 26.9922 200.308 26.7578Z" fill="white"/>
</svg>
