<svg width="127" height="127" viewBox="0 0 127 127" fill="none" xmlns="http://www.w3.org/2000/svg">
<path d="M63.5 10.5833C40.1585 10.5833 21.1667 29.5751 21.1667 52.8902C21.0132 86.995 61.8913 115.274 63.5 116.417C63.5 116.417 105.987 86.995 105.833 52.9167C105.833 29.5751 86.8415 10.5833 63.5 10.5833ZM63.5 74.0833C51.8054 74.0833 42.3333 64.6113 42.3333 52.9167C42.3333 41.2221 51.8054 31.75 63.5 31.75C75.1946 31.75 84.6667 41.2221 84.6667 52.9167C84.6667 64.6113 75.1946 74.0833 63.5 74.0833Z" fill="black"/>
<circle cx="63.5" cy="52.5" r="23.5" fill="#D9D9D9"/>
<path d="M79.4751 49.0324C79.5546 48.8493 79.5977 48.652 79.6019 48.452C79.6062 48.2519 79.5714 48.053 79.4997 47.8666C79.428 47.6802 79.3207 47.5099 79.1839 47.3655C79.0472 47.2212 78.8837 47.1055 78.7028 47.0252L59.0205 38.2461C57.5227 37.578 55.6786 38.3238 55.0388 39.8353L51.712 47.6963C51.399 48.4399 51.39 49.2789 51.6869 50.0292C51.9838 50.7796 52.5624 51.3799 53.2956 51.6985L62.3849 55.6457L60.5183 60.3739H54.0107V55.7983H51V68H54.0107V63.4243H60.5183C61.7572 63.4243 62.8546 62.6709 63.3122 61.5056L65.1517 56.8476L72.9871 60.2488C73.352 60.4075 73.7639 60.4136 74.1333 60.266C74.5026 60.1183 74.7994 59.8287 74.9591 59.4603L75.4287 58.3774L77.9893 59.4146L81 51.7885L78.6878 50.8535L79.4751 49.0324ZM72.8004 56.8507L54.4819 48.8967L57.8057 41.0387L76.1137 49.2047L72.8004 56.8507Z" fill="black" fill-opacity="0.9"/>
</svg>
